<?xml version="1.0" encoding="utf-8"?><svg xmlns="http://www.w3.org/2000/svg" viewBox="0 0 32 32"><g style="fill:#012169;"><rect x="2.6" y="7" style="fill:#FFFFFF;" width="26.8" height="16.1"/><path style="fill:#C8102E;" d="M14.4,7h3.2v6.4l11.8,0.1v3.2l-11.8-0.1v6.5h-3.2l0-6.5l-11.8,0v-3.2l11.8-0.1L14.4,7z"/><path d="M13.3,7v4.5L5.7,7H13.3z"/><path d="M26.3,7l-7.5,4.6V7L26.3,7z"/><path d="M5.7,23.1l7.6-4.6v4.6H5.7z"/><path d="M18.7,23.1v-4.5l7.6,4.5H18.7z"/><path style="fill:#C8102E;" d="M29.4,7l-8.7,5.3h-1.9L27.4,7L29.4,7z"/><path style="fill:#C8102E;" d="M2.6,23.1l8.9-5.4h1.6l-8.5,5.4L2.6,23.1z"/><path d="M2.6,8.8l5.8,3.6H2.6V8.8z"/><path d="M29.4,12.3h-5.7l5.7-3.4V12.3z"/><path d="M2.6,17.7h5.7l-5.7,3.5V17.7z"/><path d="M29.4,21.2l-5.7-3.4h5.7L29.4,21.2z"/><path style="fill:#C8102E;" d="M11.5,12.4H9.6l-7-4.2l0-1.2L11.5,12.4z"/><path style="fill:#C8102E;" d="M20.5,17.8h1.9l7,4.2l0,1.1L20.5,17.8z"/></g></svg>