<?xml version="1.0" encoding="utf-8"?><svg xmlns="http://www.w3.org/2000/svg" viewBox="0 0 32 32"><g style="fill:#012169;"><path style="fill:#5C6BC0;" d="M28.7,12.4H9.2c-0.9,0-1.6,0.6-1.9,1.4L3.7,24.4v-14h24c0-1.1-0.9-2-2-2H14.9c-0.5,0-0.9-0.2-1.3-0.5l-1.3-1.1c-0.4-0.3-0.8-0.5-1.3-0.5H3.7c-1.1,0-2,0.9-2,2v16c0,1.1,0.9,2,2,2h22l4.8-11.2c0.4-1,0-2.2-1.1-2.6C29.2,12.5,29,12.4,28.7,12.4z"/><rect x="13.6" y="16.7" style="fill:#FFFFFF;" width="18.3" height="11"/><path style="fill:#C8102E;" d="M21.6,16.7h2.2V21l8,0.1v2.2l-8-0.1v4.4h-2.2v-4.4h-8V21l8-0.1L21.6,16.7z"/><path d="M20.9,16.7v3.1l-5.2-3.1H20.9z"/><path d="M29.7,16.7l-5.1,3.1v-3.1H29.7z"/><path d="M15.7,27.6l5.2-3.1v3.1H15.7z"/><path d="M24.5,27.6v-3.1l5.2,3.1H24.5z"/><path style="fill:#C8102E;" d="M31.8,16.7l-5.9,3.6h-1.3l5.9-3.6H31.8z"/><path style="fill:#C8102E;" d="M13.6,27.6l6.1-3.7h1.1l-5.8,3.7H13.6z"/><path d="M13.6,17.9l4,2.5h-4V17.9z"/><path d="M31.8,20.3H28l3.9-2.3C31.8,18,31.8,20.3,31.8,20.3z"/><path d="M13.6,24h3.9l-3.9,2.4C13.6,26.3,13.6,24,13.6,24z"/><path d="M31.8,26.3L28,24h3.9V26.3z"/><path style="fill:#C8102E;" d="M19.6,20.3h-1.3l-4.8-2.9v-0.8L19.6,20.3z"/><path style="fill:#C8102E;" d="M25.8,24h1.3l4.8,2.9v0.8L25.8,24z"/></g></svg>