<?xml version="1.0" encoding="utf-8"?><svg xmlns="http://www.w3.org/2000/svg" viewBox="0 0 32 32"><g><linearGradient id="gradient_folder" gradientUnits="userSpaceOnUse" x1="1.7" y1="16.3" x2="30.6516" y2="16.3"><stop  offset="0" style="stop-color:#7826E3"/><stop  offset="1" style="stop-color:#4048E7"/></linearGradient><path style="fill:url(#gradient_folder);" d="M28.7,12.4H9.2c-0.9,0-1.6,0.6-1.9,1.4L3.7,24.4v-14h24c0-1.1-0.9-2-2-2H14.9c-0.5,0-0.9-0.2-1.3-0.5l-1.3-1.1c-0.4-0.3-0.8-0.5-1.3-0.5H3.7c-1.1,0-2,0.9-2,2v16c0,1.1,0.9,2,2,2h22l4.8-11.2c0.4-1,0-2.2-1.1-2.6C29.2,12.5,29,12.4,28.7,12.4z"/><linearGradient id="gradient_icon" gradientUnits="userSpaceOnUse" x1="21.8447" y1="21.4126" x2="29.5554" y2="21.4126"><stop  offset="0" style="stop-color:#9553E9"/><stop  offset="1" style="stop-color:#6D74ED"/></linearGradient><polygon style="fill:url(#gradient_icon);" points="25.8,17.6 29.6,21.4 25.8,25.2 21.8,25.2 25.6,21.4 21.8,17.6 "/><polygon style="fill:url(#gradient_icon);" points="19.8,17.7 23.6,21.4 19.8,25.2 15.9,25.2 19.6,21.4 15.9,17.7 "/></g></svg>