<?xml version="1.0" encoding="utf-8"?><svg xmlns="http://www.w3.org/2000/svg" viewBox="0 0 32 32"><g><linearGradient id="gradient_folder" gradientUnits="userSpaceOnUse" x1="1.7" y1="16.3" x2="29.7" y2="16.3"><stop  offset="0" style="stop-color:#7826E3"/><stop  offset="1" style="stop-color:#4048E7"/></linearGradient><path style="fill:url(#gradient_folder);" d="M13.6,7.9l-1.3-1.1c-0.4-0.3-0.8-0.5-1.3-0.5H3.7c-1.1,0-2,0.9-2,2v16c0,1.1,0.9,2,2,2h24c1.1,0,2-0.9,2-2v-14c0-1.1-0.9-2-2-2H14.9C14.4,8.4,13.9,8.2,13.6,7.9z"/><linearGradient id="gradient_icon" gradientUnits="userSpaceOnUse" x1="21.8447" y1="21.4126" x2="29.5553" y2="21.4126"><stop  offset="0" style="stop-color:#9553E9"/><stop  offset="1" style="stop-color:#6D74ED"/></linearGradient><polygon style="fill:url(#gradient_icon);" points="25.8,17.6 29.6,21.4 25.8,25.2 21.8,25.2 25.6,21.4 21.8,17.6"/><polygon style="fill:url(#gradient_icon);" points="19.8,17.7 23.6,21.4 19.8,25.2 15.9,25.2 19.6,21.4 15.9,17.7"/></g></svg>