<?xml version="1.0" encoding="utf-8"?><svg xmlns="http://www.w3.org/2000/svg" viewBox="0 0 32 32"><g style="fill:#4DB6AC;"><path style="fill:#1F8476;" d="M13.6,7.9l-1.3-1.1c-0.4-0.3-0.8-0.5-1.3-0.5H3.7c-1.1,0-2,0.9-2,2v16c0,1.1,0.9,2,2,2h24c1.1,0,2-0.9,2-2v-14c0-1.1-0.9-2-2-2H14.9C14.4,8.4,13.9,8.2,13.6,7.9z"/><path d="M32,19.2c-0.6,1.6-2.7,2.7-5.2,2.7s-4.7-1.1-5.3-2.7h-4c0.6-1.6,2.7-2.7,5.2-2.7s4.7,1.2,5.3,2.7H32z"/><path d="M28,24.6c-0.6,1.6-2.7,2.7-5.2,2.7s-4.7-1.1-5.3-2.7h-4.1c0.6-1.6,2.7-2.7,5.2-2.7s4.7,1.2,5.3,2.7H28z"/></g></svg>