<?xml version="1.0" encoding="utf-8"?><svg xmlns="http://www.w3.org/2000/svg" viewBox="0 0 32 32"><g style="fill:#012169;"><path style="fill:#5C6BC0;" d="M13.6,7.9l-1.3-1.1c-0.4-0.3-0.8-0.5-1.3-0.5H3.7c-1.1,0-2,0.9-2,2v16c0,1.1,0.9,2,2,2h24c1.1,0,2-0.9,2-2v-14c0-1.1-0.9-2-2-2H14.9C14.4,8.4,13.9,8.2,13.6,7.9z"/><rect x="13.5" y="17" style="fill:#FFFFFF;" width="18.3" height="11"/><path style="fill:#C8102E;" d="M21.5,17h2.2v4.4l8,0.1v2.2l-8-0.1V28h-2.2v-4.4h-8v-2.2l8-0.1L21.5,17z"/><path d="M20.8,17v3.1L15.6,17H20.8z"/><path d="M29.6,17l-5.1,3.1V17H29.6z"/><path d="M15.6,28l5.2-3.1V28H15.6z"/><path d="M24.5,28V25l5.2,3.1H24.5z"/><path style="fill:#C8102E;" d="M31.7,17l-5.9,3.6h-1.3l5.9-3.6H31.7z"/><path style="fill:#C8102E;" d="M13.5,28l6.1-3.7h1.1L14.8,28H13.5z"/><path d="M13.5,18.3l4,2.5h-4V18.3z"/><path d="M31.7,20.7h-3.9l3.9-2.3C31.7,18.3,31.7,20.7,31.7,20.7z"/><path d="M13.5,24.3h3.9l-3.9,2.4C13.5,26.7,13.5,24.3,13.5,24.3z"/><path d="M31.7,26.7l-3.9-2.3h3.9V26.7z"/><path style="fill:#C8102E;" d="M19.5,20.7h-1.3l-4.8-2.9V17L19.5,20.7z"/><path style="fill:#C8102E;" d="M25.7,24.4H27l4.8,2.9V28L25.7,24.4z"/></g></svg>