<?xml version="1.0" encoding="utf-8"?><svg xmlns="http://www.w3.org/2000/svg" viewBox="0 0 32 32"><g><path style="fill:#5C6BC0;" d="M28.7,12.4H9.2c-0.9,0-1.6,0.6-1.9,1.4L3.7,24.4v-14h24c0-1.1-0.9-2-2-2H14.9c-0.5,0-0.9-0.2-1.3-0.5l-1.3-1.1c-0.4-0.3-0.8-0.5-1.3-0.5H3.7c-1.1,0-2,0.9-2,2v16c0,1.1,0.9,2,2,2h22l4.8-11.2c0.4-1,0-2.2-1.1-2.6C29.2,12.5,29,12.4,28.7,12.4z"/><path style="fill:#002395;" d="M19.6,28.4h-6.2V16h6.2V28.4z"/><path style="fill:#FFFFFF;" d="M19.6,28.4V16h6.1v12.4H19.6z"/><path style="fill:#ED2939;" d="M25.7,28.4V16h6.2v12.4H25.7z"/></g></svg>